{"title":"the soloist dvdr ntsc 2009","uid":5015250,"size":2093332651,"categoryP":"video","categoryS":"movies_dvdr","magnet":"?xt=urn:btih:5fb67459d0b01bda35f8530a111f529c22e917d3&amp;dn=the+soloist+dvdr+ntsc+2009&amp;tr=udp%3A%2F%2Ftracker.openbittorrent.com%3A80&amp;tr=udp%3A%2F%2Fopen.demonii.com%3A1337&amp;tr=udp%3A%2F%2Ftracker.coppersurfer.tk%3A6969&amp;tr=udp%3A%2F%2Fexodus.desync.com%3A6969","seeders":0,"leechers":0,"uploader":"lowp1976","files":13,"time":1248193445,"description":"Summary: In 2005, the only thing hurting Los Angeles Times columnist Steve Lopez more than his face from a recent bike accident was his pressing need for story ideas. That is when he discovers Nathaniel Ayers, a mentally ill, homeless street musician who possesses extraordinary talent, even through his half-broken instruments. Inspired by his story, Lopez writes an acclaimed series of articles about Ayers and attempts to do more to help both him, and the rest of the underclass of LA have a better life. However, Lopez's good intentions run headlong in the hard realities of the strength of Ayers' personal demons and the larger social injustices facing the homeless. Regardless, Lopez and Ayers must find away to conquer their deepest anxieties and frustrations to hope for a brighter future for both of them.\n\nHope u enjoy and please seed....\n\nMenu\nFormat                           : DVD-Video\n\nGeneral\nComplete name                    : ConvertXtoDVDthe soloistVIDEO_TSVTS_01_1.VOB\nFormat                           : MPEG-PS\nFile size                        : 962 MiB\nDuration                         : 55mn 55s\nOverall bit rate                 : 2 406 Kbps\n\nVideo\nID                               : 224 (0xE0)\nFormat                           : MPEG Video\nFormat version                   : Version 2\nFormat profile                   : Main@Main\nFormat settings, Matrix          : Default\nDuration                         : 55mn 55s\nBit rate mode                    : Variable\nBit rate                         : 1 862 Kbps\nNominal bit rate                 : 9 400 Kbps\nWidth                            : 720 pixels\nHeight                           : 480 pixels\nDisplay aspect ratio             : 16/9\nFrame rate                       : 23.976 fps\nStandard                         : NTSC\nColorimetry                      : 4:2:0\nScan type                        : Progressive\nScan order                       : 2:3 Pulldown\nBits/(Pixel*Frame)               : 0.225\nStream size                      : 745 MiB (77%)\n\nAudio\nID                               : 128 (0x80)\nFormat                           : AC-3\nFormat/Info                      : Audio Coding 3\nDuration                         : 55mn 55s\nBit rate mode                    : Constant\nBit rate                         : 448 Kbps\nChannel(s)                       : 6 channels\nChannel positions                : Front: L C R, Surround: L R, LFE\nSampling rate                    : 48.0 KHz\nStream size                      : 179 MiB (19%)\n\nMenu\nFormat                           : DVD-Video\n\nGeneral\nComplete name                    : ConvertXtoDVDthe soloistVIDEO_TSVTS_02_1.VOB\nFormat                           : MPEG-PS\nFile size                        : 967 MiB\nDuration                         : 1h 1mn\nOverall bit rate                 : 2 212 Kbps\n\nVideo\nID                               : 224 (0xE0)\nFormat                           : MPEG Video\nFormat version                   : Version 2\nFormat profile                   : Main@Main\nFormat settings, Matrix          : Default\nDuration                         : 1h 1mn\nBit rate mode                    : Variable\nBit rate                         : 1 677 Kbps\nNominal bit rate                 : 9 400 Kbps\nWidth                            : 720 pixels\nHeight                           : 480 pixels\nDisplay aspect ratio             : 16/9\nFrame rate                       : 23.976 fps\nStandard                         : NTSC\nColorimetry                      : 4:2:0\nScan type                        : Progressive\nScan order                       : 2:3 Pulldown\nBits/(Pixel*Frame)               : 0.202\nStream size                      : 733 MiB (76%)\n\nAudio\nID                               : 128 (0x80)\nFormat                           : AC-3\nFormat/Info                      : Audio Coding 3\nDuration                         : 1h 1mn\nBit rate mode                    : Constant\nBit rate                         : 448 Kbps\nChannel(s)                       : 6 channels\nChannel positions                : Front: L C R, Surround: L R, LFE\nSampling rate                    : 48.0 KHz\nStream size                      : 196 MiB (20%)","torrent":{"xt":"urn:btih:5fb67459d0b01bda35f8530a111f529c22e917d3","amp;dn":"the+soloist+dvdr+ntsc+2009","amp;tr":["udp%3A%2F%2Ftracker.openbittorrent.com%3A80","udp%3A%2F%2Fopen.demonii.com%3A1337","udp%3A%2F%2Ftracker.coppersurfer.tk%3A6969","udp%3A%2F%2Fexodus.desync.com%3A6969"],"infoHash":"5fb67459d0b01bda35f8530a111f529c22e917d3","infoHashBuffer":{"type":"Buffer","data":[95,182,116,89,208,176,27,218,53,248,83,10,17,31,82,156,34,233,23,211]},"announce":[],"urlList":[]}}